<mxfile host="app.diagrams.net" modified="2024-06-04T09:07:22.007Z" agent="Mozilla/5.0 (Windows NT 10.0; Win64; x64) AppleWebKit/537.36 (KHTML, like Gecko) Chrome/124.0.0.0 Safari/537.36" etag="oir3gqpex78YXx2AyrUE" version="24.4.13" type="github">
  <diagram name="第 1 页" id="EgizWnqEIEkYrljBhyyN">
    <mxGraphModel dx="1434" dy="780" grid="1" gridSize="10" guides="1" tooltips="1" connect="1" arrows="1" fold="1" page="1" pageScale="1" pageWidth="827" pageHeight="1169" math="0" shadow="0">
      <root>
        <mxCell id="0" />
        <mxCell id="1" parent="0" />
        <mxCell id="zWaWJDjLRC80mdpNVwsu-1" value="attention" style="rounded=0;whiteSpace=wrap;html=1;strokeColor=none;fillColor=#00b050;fontSize=16;fontColor=#FFFFFF;" vertex="1" parent="1">
          <mxGeometry x="120" y="280" width="140" height="40" as="geometry" />
        </mxCell>
        <mxCell id="zWaWJDjLRC80mdpNVwsu-2" value="&lt;font style=&quot;font-size: 15px;&quot;&gt;FFN&lt;/font&gt;" style="rounded=0;whiteSpace=wrap;html=1;" vertex="1" parent="1">
          <mxGeometry x="300" y="280" width="140" height="40" as="geometry" />
        </mxCell>
        <mxCell id="zWaWJDjLRC80mdpNVwsu-3" value="" style="rounded=0;whiteSpace=wrap;html=1;fillColor=#4155c6;strokeColor=#4155c6;" vertex="1" parent="1">
          <mxGeometry x="260" y="340" width="40" height="40" as="geometry" />
        </mxCell>
        <mxCell id="zWaWJDjLRC80mdpNVwsu-4" value="" style="rounded=0;whiteSpace=wrap;html=1;" vertex="1" parent="1">
          <mxGeometry x="200" y="400" width="300" height="40" as="geometry" />
        </mxCell>
        <mxCell id="zWaWJDjLRC80mdpNVwsu-5" value="" style="rounded=0;whiteSpace=wrap;html=1;fillColor=#4155c6;strokeColor=#4155c6;" vertex="1" parent="1">
          <mxGeometry x="440" y="340" width="40" height="40" as="geometry" />
        </mxCell>
        <mxCell id="zWaWJDjLRC80mdpNVwsu-6" value="attention" style="rounded=0;whiteSpace=wrap;html=1;strokeColor=none;fillColor=#00b050;fontSize=16;fontColor=#FFFFFF;" vertex="1" parent="1">
          <mxGeometry x="560" y="280" width="140" height="40" as="geometry" />
        </mxCell>
        <mxCell id="zWaWJDjLRC80mdpNVwsu-7" value="" style="rounded=0;whiteSpace=wrap;html=1;fillColor=#4155c6;strokeColor=#4155c6;" vertex="1" parent="1">
          <mxGeometry x="700" y="340" width="40" height="40" as="geometry" />
        </mxCell>
      </root>
    </mxGraphModel>
  </diagram>
</mxfile>
